<svg id="Layer_1" data-name="Layer 1" xmlns="http://www.w3.org/2000/svg" viewBox="0 0 360 360"><defs><style>.cls-1{fill:#2171b5;}</style></defs><title>MyFamilyNurse_Icons</title><circle class="cls-1" cx="232.01" cy="106.44" r="0.52" transform="translate(5.47 224.09) rotate(-52.09)"/><circle class="cls-1" cx="232.46" cy="103.5" r="0.52" transform="translate(7.95 223.27) rotate(-52.08)"/><circle class="cls-1" cx="232.82" cy="100.81" r="0.52" transform="translate(10.22 222.53) rotate(-52.08)"/><circle class="cls-1" cx="230.53" cy="99.02" r="0.52" transform="translate(10.75 220.04) rotate(-52.08)"/><circle class="cls-1" cx="227.89" cy="99.94" r="0.52" transform="translate(9 218.29) rotate(-52.08)"/><circle class="cls-1" cx="228.24" cy="97.24" r="0.52" transform="translate(11.25 217.52) rotate(-52.08)"/><circle class="cls-1" cx="229.39" cy="107.45" r="0.52" transform="translate(3.64 222.35) rotate(-52.08)"/><circle class="cls-1" cx="230.18" cy="101.72" r="0.52" transform="translate(8.45 220.73) rotate(-52.06)"/><circle class="cls-1" cx="216.67" cy="94.49" r="0.52" transform="translate(8.94 207.29) rotate(-52.06)"/><circle class="cls-1" cx="235.1" cy="102.59" r="0.52" transform="translate(9.67 224.97) rotate(-52.07)"/><circle class="cls-1" cx="218.62" cy="99.06" r="0.52" transform="translate(6.11 210.63) rotate(-52.08)"/><circle class="cls-1" cx="218.95" cy="96.28" r="0.52" transform="translate(8.43 209.82) rotate(-52.08)"/><circle class="cls-1" cx="217.48" cy="88.85" r="0.52" transform="translate(13.75 205.84) rotate(-52.09)"/><circle class="cls-1" cx="217.13" cy="91.55" r="0.52" transform="translate(11.49 206.6) rotate(-52.09)"/><circle class="cls-1" cx="222.05" cy="92.42" r="0.52" transform="translate(12.7 210.82) rotate(-52.09)"/><circle class="cls-1" cx="221.7" cy="95.11" r="0.52" transform="translate(10.4 211.51) rotate(-52.07)"/><circle class="cls-1" cx="219.77" cy="90.64" r="0.52" transform="translate(13.2 208.28) rotate(-52.08)"/><circle class="cls-1" cx="219.41" cy="93.33" r="0.52" transform="translate(10.96 209.09) rotate(-52.09)"/><circle class="cls-1" cx="229.72" cy="104.66" r="0.52" transform="translate(6 221.59) rotate(-52.09)"/><circle class="cls-1" cx="227.43" cy="102.88" r="0.52" transform="translate(6.5 219.06) rotate(-52.08)"/><circle class="cls-1" cx="224.17" cy="109.43" r="0.52" transform="translate(0.06 219) rotate(-52.08)"/><circle class="cls-1" cx="223.38" cy="115.16" r="0.52" transform="translate(-4.77 220.56) rotate(-52.07)"/><circle class="cls-1" cx="224.52" cy="106.74" r="0.52" transform="translate(2.32 218.22) rotate(-52.07)"/><circle class="cls-1" cx="223.71" cy="112.38" r="0.52" transform="translate(-2.45 219.75) rotate(-52.07)"/><circle class="cls-1" cx="225.66" cy="116.95" r="0.52" transform="matrix(0.61, -0.79, 0.79, 0.61, -5.29, 223.05)"/><circle class="cls-1" cx="226.81" cy="108.52" r="0.52" transform="translate(1.82 220.76) rotate(-52.08)"/><circle class="cls-1" cx="226.45" cy="111.21" r="0.52" transform="translate(-0.43 221.54) rotate(-52.09)"/><circle class="cls-1" cx="225.99" cy="114.16" r="0.52" transform="translate(-2.94 222.3) rotate(-52.08)"/><circle class="cls-1" cx="222.23" cy="104.96" r="0.52" transform="translate(2.84 215.73) rotate(-52.07)"/><circle class="cls-1" cx="225.15" cy="101.1" r="0.52" transform="translate(6.99 216.52) rotate(-52.06)"/><circle class="cls-1" cx="224.81" cy="103.89" r="0.52" transform="translate(4.72 217.42) rotate(-52.09)"/><circle class="cls-1" cx="218.8" cy="111.6" r="0.52" transform="translate(-3.7 215.64) rotate(-52.08)"/><circle class="cls-1" cx="227.1" cy="105.67" r="0.52" transform="translate(4.17 219.86) rotate(-52.08)"/><circle class="cls-1" cx="221.09" cy="113.38" r="0.52" transform="translate(-4.22 218.13) rotate(-52.08)"/><circle class="cls-1" cx="221.42" cy="110.6" r="0.52" transform="translate(-1.89 217.34) rotate(-52.09)"/><circle class="cls-1" cx="221.88" cy="107.65" r="0.52" transform="translate(0.61 216.56) rotate(-52.09)"/><circle class="cls-1" cx="219.13" cy="108.82" r="0.52" transform="translate(-1.39 214.79) rotate(-52.08)"/><circle class="cls-1" cx="210.66" cy="102.21" r="0.52" transform="translate(0.56 205.56) rotate(-52.08)"/><circle class="cls-1" cx="204.25" cy="93.92" r="0.52" transform="translate(4.65 197.36) rotate(-52.09)"/><circle class="cls-1" cx="203.8" cy="96.87" r="0.52" transform="translate(2.15 198.14) rotate(-52.09)"/><circle class="cls-1" cx="203.46" cy="99.65" r="0.52" transform="translate(-0.2 198.9) rotate(-52.08)"/><circle class="cls-1" cx="207.19" cy="90.15" r="0.52" transform="translate(8.71 198.14) rotate(-52.06)"/><circle class="cls-1" cx="204.61" cy="91.23" r="0.52" transform="translate(6.89 196.56) rotate(-52.08)"/><circle class="cls-1" cx="206.54" cy="95.7" r="0.52" transform="translate(4.1 199.8) rotate(-52.08)"/><circle class="cls-1" cx="206.08" cy="98.65" r="0.52" transform="translate(1.63 200.63) rotate(-52.09)"/><circle class="cls-1" cx="207.52" cy="87.37" r="0.52" transform="translate(11.06 197.37) rotate(-52.08)"/><circle class="cls-1" cx="205.75" cy="101.43" r="0.52" transform="translate(-0.7 201.44) rotate(-52.09)"/><circle class="cls-1" cx="211.76" cy="93.72" r="0.52" transform="translate(7.69 203.17) rotate(-52.08)"/><circle class="cls-1" cx="212.91" cy="85.29" r="0.52" transform="translate(14.77 200.82) rotate(-52.08)"/><circle class="cls-1" cx="212.09" cy="90.93" r="0.52" transform="translate(10.03 202.39) rotate(-52.09)"/><circle class="cls-1" cx="212.55" cy="87.99" r="0.52" transform="translate(12.51 201.57) rotate(-52.08)"/><circle class="cls-1" cx="216.34" cy="97.28" r="0.52" transform="translate(6.63 208.14) rotate(-52.08)"/><circle class="cls-1" cx="215.19" cy="87.07" r="0.52" transform="translate(14.25 203.31) rotate(-52.08)"/><circle class="cls-1" cx="209.81" cy="89.15" r="0.52" transform="translate(10.53 199.86) rotate(-52.08)"/><circle class="cls-1" cx="206.89" cy="93.01" r="0.52" transform="translate(6.39 199.09) rotate(-52.09)"/><circle class="cls-1" cx="210.27" cy="86.2" r="0.52" transform="translate(13.03 199.08) rotate(-52.08)"/><circle class="cls-1" cx="209.48" cy="91.93" r="0.52" transform="translate(8.19 200.63) rotate(-52.06)"/><circle class="cls-1" cx="214.05" cy="95.5" r="0.52" transform="translate(7.16 205.65) rotate(-52.08)"/><circle class="cls-1" cx="213.75" cy="98.35" r="0.52" transform="translate(4.79 206.52) rotate(-52.08)"/><circle class="cls-1" cx="214.38" cy="92.71" r="0.52" transform="translate(9.51 204.89) rotate(-52.09)"/><circle class="cls-1" cx="213.4" cy="101.05" r="0.52" transform="translate(2.56 207.32) rotate(-52.09)"/><circle class="cls-1" cx="212.94" cy="103.99" r="0.52" transform="translate(0.01 208.01) rotate(-52.06)"/><circle class="cls-1" cx="216.04" cy="100.13" r="0.52" transform="translate(4.29 209.06) rotate(-52.09)"/><circle class="cls-1" cx="215.69" cy="102.83" r="0.52" transform="translate(2.01 209.76) rotate(-52.08)"/><circle class="cls-1" cx="214.84" cy="89.77" r="0.52" transform="translate(11.99 204.07) rotate(-52.08)"/><circle class="cls-1" cx="227.95" cy="118.73" r="0.52" transform="translate(-5.79 225.6) rotate(-52.08)"/><circle class="cls-1" cx="210.32" cy="105" r="0.52" transform="translate(-1.74 206.42) rotate(-52.09)"/><circle class="cls-1" cx="208.83" cy="97.48" r="0.52" transform="translate(3.58 202.29) rotate(-52.08)"/><circle class="cls-1" cx="209.18" cy="94.79" r="0.52" transform="translate(5.87 201.58) rotate(-52.09)"/><circle class="cls-1" cx="208.37" cy="100.43" r="0.52" transform="translate(1.1 203.12) rotate(-52.09)"/><circle class="cls-1" cx="212.61" cy="106.78" r="0.52" transform="translate(-2.29 208.86) rotate(-52.08)"/><circle class="cls-1" cx="208.04" cy="103.21" r="0.52" transform="translate(-1.26 203.84) rotate(-52.06)"/><circle class="cls-1" cx="211.47" cy="96.57" r="0.52" transform="translate(5.34 204.07) rotate(-52.09)"/><circle class="cls-1" cx="211.11" cy="99.26" r="0.52" transform="translate(3.08 204.83) rotate(-52.09)"/><circle class="cls-1" cx="231.67" cy="109.23" r="0.52" transform="translate(3.11 224.82) rotate(-52.07)"/><circle class="cls-1" cx="246.42" cy="123.8" r="0.52" transform="translate(-2.68 242.12) rotate(-52.08)"/><circle class="cls-1" cx="245.27" cy="132.23" r="0.52" transform="translate(-9.76 244.47) rotate(-52.08)"/><circle class="cls-1" cx="245.61" cy="129.44" r="0.52" transform="translate(-7.44 243.66) rotate(-52.08)"/><circle class="cls-1" cx="247.56" cy="134.01" r="0.52" transform="matrix(0.61, -0.79, 0.79, 0.61, -10.31, 246.9)"/><circle class="cls-1" cx="246.06" cy="126.49" r="0.52" transform="matrix(0.61, -0.79, 0.79, 0.61, -4.97, 242.82)"/><circle class="cls-1" cx="248.7" cy="125.58" r="0.52" transform="translate(-3.22 244.58) rotate(-52.08)"/><circle class="cls-1" cx="247.89" cy="131.22" r="0.52" transform="translate(-7.96 246.15) rotate(-52.08)"/><circle class="cls-1" cx="249" cy="122.73" r="0.52" transform="translate(-0.86 243.69) rotate(-52.07)"/><circle class="cls-1" cx="248.35" cy="128.28" r="0.52" transform="translate(-5.49 245.31) rotate(-52.07)"/><circle class="cls-1" cx="241.49" cy="122.93" r="0.52" transform="translate(-3.9 237.88) rotate(-52.08)"/><circle class="cls-1" cx="240.7" cy="128.66" r="0.52" transform="translate(-8.72 239.49) rotate(-52.08)"/><circle class="cls-1" cx="241.03" cy="125.88" r="0.52" transform="translate(-6.42 238.62) rotate(-52.07)"/><circle class="cls-1" cx="244.13" cy="122.02" r="0.52" transform="matrix(0.61, -0.79, 0.79, 0.61, -2.18, 239.58)"/><circle class="cls-1" cx="250.18" cy="133" r="0.52" transform="translate(-8.49 248.64) rotate(-52.08)"/><circle class="cls-1" cx="238.41" cy="126.88" r="0.52" transform="translate(-8.22 236.94) rotate(-52.07)"/><circle class="cls-1" cx="243.78" cy="124.71" r="0.52" transform="translate(-4.42 240.37) rotate(-52.08)"/><circle class="cls-1" cx="241.84" cy="120.24" r="0.52" transform="translate(-1.63 237.14) rotate(-52.08)"/><circle class="cls-1" cx="244.43" cy="119.16" r="0.52" transform="translate(0.17 238.69) rotate(-52.06)"/><circle class="cls-1" cx="242.99" cy="130.44" r="0.52" transform="matrix(0.61, -0.79, 0.79, 0.61, -9.27, 241.92)"/><circle class="cls-1" cx="243.32" cy="127.66" r="0.52" transform="translate(-6.94 241.11) rotate(-52.07)"/><circle class="cls-1" cx="256.19" cy="125.29" r="0.52" transform="translate(-0.08 250.41) rotate(-52.08)"/><circle class="cls-1" cx="257" cy="119.65" r="0.52" transform="translate(4.68 248.87) rotate(-52.08)"/><circle class="cls-1" cx="256.65" cy="122.34" r="0.52" transform="translate(2.42 249.63) rotate(-52.08)"/><circle class="cls-1" cx="255.86" cy="128.07" r="0.52" transform="translate(-2.41 251.22) rotate(-52.08)"/><circle class="cls-1" cx="258.15" cy="126.81" r="0.52" transform="translate(-0.52 252.56) rotate(-52.09)"/><path class="cls-1" d="M218.74,71.59a53.09,53.09,0,0,0-46.34,27.15,35.5,35.5,0,0,1,.33,7.16c-3.3,44.56,3.1,50.84,5.14,51.7s4.82-1.62,5.64-2.55l1.71-1.93,1.91,1.74c.26.24,6.31,5.87,6.25,13a12.21,12.21,0,0,1-.48,3.26,53.12,53.12,0,1,0,25.84-99.53Zm-14.28,34.33a12.73,12.73,0,1,1,15.65-20.09l6.79,5.29-15.65,20.09Zm9,7,15.65-20.09,17.92,14-15.65,20.09Zm27.42,21.36-7.33-5.71,15.65-20.09,7.33,5.71a12.73,12.73,0,0,1-15.65,20.09Z"/><circle class="cls-1" cx="228.28" cy="115.94" r="0.52" transform="matrix(0.61, -0.79, 0.79, 0.61, -3.49, 224.73)"/><circle class="cls-1" cx="258.93" cy="124.12" r="0.52" transform="translate(1.88 252.09) rotate(-52.08)"/><circle class="cls-1" cx="250.64" cy="130.06" r="0.52" transform="translate(-5.99 247.86) rotate(-52.08)"/><circle class="cls-1" cx="255.23" cy="130.67" r="0.52" transform="translate(-4.73 251.67) rotate(-52.07)"/><circle class="cls-1" cx="252.08" cy="118.78" r="0.52" transform="translate(3.46 244.63) rotate(-52.08)"/><circle class="cls-1" cx="251.28" cy="124.51" r="0.52" transform="translate(-1.36 246.24) rotate(-52.08)"/><circle class="cls-1" cx="251.62" cy="121.72" r="0.52" transform="translate(0.97 245.43) rotate(-52.08)"/><circle class="cls-1" cx="254.36" cy="120.56" r="0.52" transform="translate(2.9 247.06) rotate(-52.06)"/><circle class="cls-1" cx="250.99" cy="127.36" r="0.52" transform="translate(-3.74 247.07) rotate(-52.08)"/><circle class="cls-1" cx="252.92" cy="131.84" r="0.52" transform="translate(-6.51 250.36) rotate(-52.08)"/><circle class="cls-1" cx="253.9" cy="123.51" r="0.52" transform="translate(0.44 247.92) rotate(-52.08)"/><circle class="cls-1" cx="253.57" cy="126.29" r="0.52" transform="matrix(0.61, -0.79, 0.79, 0.61, -1.91, 248.67)"/><circle class="cls-1" cx="253.28" cy="129.15" r="0.52" transform="translate(-4.27 249.56) rotate(-52.08)"/><circle class="cls-1" cx="238.75" cy="124.1" r="0.52" transform="translate(-5.87 236.19) rotate(-52.08)"/><circle class="cls-1" cx="234.29" cy="108.23" r="0.52" transform="translate(4.92 226.52) rotate(-52.08)"/><circle class="cls-1" cx="233.66" cy="113.87" r="0.52" transform="translate(0.21 228.16) rotate(-52.06)"/><circle class="cls-1" cx="234.75" cy="105.28" r="0.52" transform="translate(7.45 225.8) rotate(-52.09)"/><circle class="cls-1" cx="244.76" cy="116.38" r="0.52" transform="translate(2.55 237.98) rotate(-52.09)"/><circle class="cls-1" cx="235.52" cy="118.28" r="0.52" transform="translate(-2.51 231.42) rotate(-52.09)"/><circle class="cls-1" cx="235.87" cy="115.58" r="0.52" transform="translate(-0.29 230.58) rotate(-52.07)"/><circle class="cls-1" cx="237.04" cy="107.06" r="0.52" transform="translate(6.92 228.29) rotate(-52.09)"/><circle class="cls-1" cx="237.39" cy="104.37" r="0.52" transform="translate(9.15 227.46) rotate(-52.07)"/><circle class="cls-1" cx="236.25" cy="112.79" r="0.52" transform="translate(2.09 229.86) rotate(-52.08)"/><circle class="cls-1" cx="236.58" cy="110.01" r="0.52" transform="translate(4.38 228.99) rotate(-52.07)"/><circle class="cls-1" cx="229.09" cy="110.3" r="0.52" transform="matrix(0.61, -0.79, 0.79, 0.61, 1.27, 223.2)"/><circle class="cls-1" cx="230.23" cy="120.51" r="0.52" transform="translate(-6.32 228.09) rotate(-52.08)"/><circle class="cls-1" cx="230.57" cy="117.72" r="0.52" transform="translate(-4.02 227.22) rotate(-52.07)"/><circle class="cls-1" cx="228.74" cy="113" r="0.52" transform="translate(-0.97 224.01) rotate(-52.08)"/><circle class="cls-1" cx="231.02" cy="114.78" r="0.52" transform="translate(-1.49 226.5) rotate(-52.08)"/><circle class="cls-1" cx="233.31" cy="116.56" r="0.52" transform="translate(-2.04 228.94) rotate(-52.07)"/><circle class="cls-1" cx="232.44" cy="122.23" r="0.52" transform="translate(-6.85 230.43) rotate(-52.07)"/><circle class="cls-1" cx="232.77" cy="119.44" r="0.52" transform="translate(-4.52 229.62) rotate(-52.07)"/><circle class="cls-1" cx="231.38" cy="112.08" r="0.52" transform="translate(0.74 225.69) rotate(-52.07)"/><circle class="cls-1" cx="233.96" cy="111.01" r="0.52" transform="translate(2.61 227.37) rotate(-52.08)"/><circle class="cls-1" cx="249.33" cy="119.94" r="0.52" transform="translate(1.46 242.88) rotate(-52.07)"/><circle class="cls-1" cx="247.5" cy="115.22" r="0.52" transform="translate(4.53 239.69) rotate(-52.09)"/><circle class="cls-1" cx="247.86" cy="112.52" r="0.52" transform="translate(6.78 238.91) rotate(-52.08)"/><circle class="cls-1" cx="249.79" cy="117" r="0.52" transform="translate(4 242.18) rotate(-52.09)"/><circle class="cls-1" cx="247.04" cy="118.16" r="0.52" transform="translate(2 240.41) rotate(-52.08)"/><circle class="cls-1" cx="250.14" cy="114.3" r="0.52" transform="translate(6.22 241.34) rotate(-52.07)"/><circle class="cls-1" cx="238.45" cy="114.51" r="0.52" transform="translate(1.57 232.22) rotate(-52.08)"/><circle class="cls-1" cx="246.71" cy="120.95" r="0.52" transform="translate(-0.34 241.2) rotate(-52.07)"/><circle class="cls-1" cx="252.43" cy="116.08" r="0.52" transform="translate(5.73 243.89) rotate(-52.08)"/><circle class="cls-1" cx="241.53" cy="110.56" r="0.52" transform="translate(5.87 233.14) rotate(-52.08)"/><circle class="cls-1" cx="241.88" cy="107.87" r="0.52" transform="translate(8.12 232.36) rotate(-52.07)"/><circle class="cls-1" cx="238.78" cy="111.73" r="0.52" transform="translate(3.89 231.41) rotate(-52.08)"/><circle class="cls-1" cx="239.32" cy="108.84" r="0.52" transform="translate(6.37 230.73) rotate(-52.08)"/><circle class="cls-1" cx="239.68" cy="106.15" r="0.52" transform="matrix(0.61, -0.79, 0.79, 0.61, 8.62, 229.95)"/><circle class="cls-1" cx="254.72" cy="117.87" r="0.52" transform="translate(5.17 246.32) rotate(-52.07)"/><path class="cls-1" d="M196.65,204l-43.38-25.47C140,192,117.15,189.81,124.36,189.81S108.69,192,95.44,178.53c0,0-5.75,5.78-38.84,24.59C51.22,204.91,43,213.77,43,225.83v62.58H72c-3.89-8.94-7.32-24.25-3.65-48.45l4.13.92c-3.83,25.24,3.12,40,7,47.53h90.23c3.84-7.52,10.8-22.29,7-47.53l4.13-.92c3.67,24.19.25,39.5-3.65,48.45h28.59V225.83C205.69,205.46,196.65,204,196.65,204Z"/><path class="cls-1" d="M167.28,111.5a53.26,53.26,0,0,0-.4,24.68A239.92,239.92,0,0,1,167.28,111.5Z"/><path class="cls-1" d="M185.25,160.34a12.91,12.91,0,0,1-3.91,2.08,53.36,53.36,0,0,0,6.94,5.79c0-.13,0-.27,0-.4C188.34,164.85,186.6,162.06,185.25,160.34Z"/><path class="cls-1" d="M185.2,160.34c-2.41,1.85-5.89,3.39-9.33,2-5.19-2.17-11.69-10.41-8.25-56.79,0-.14,1-14.45-8.81-23.13-7.3-6.46-18.74-8.37-34-5.7l-.43,0c-1.12,0-2.23.07-3.34.17-15.7-2.88-27.43-1-34.85,5.55-9.8,8.68-8.82,23-8.81,23.13,3.44,46.38-3.06,54.62-8.25,56.79-3.43,1.44-6.92-.1-9.33-2-1.35,1.71-3.09,4.51-3.06,7.5,0,2.31,1.11,4.38,3.31,6.34,5.53,4.92,11.4,7.14,17.48,6.6,8.42-.74,15.4-6.51,18.9-10,7.6,7.56,17.33,13.1,27.95,13.1,9.77,0,18.79-4.85,26.09-11.35,3.83,3.39,9.9,7.61,17,8.23,6.08.54,12-1.69,17.48-6.6,2.2-2,3.29-4,3.31-6.34C188.29,164.85,186.55,162.05,185.2,160.34Z"/><path class="cls-1" d="M306.06,198.93l-52.39-25.47a50,50,0,0,1-34.93,11.28,50.31,50.31,0,0,1-29.25-7.19c-3.05,3.45-7.65,5.63-11.18,6.89L203,198.93s9,1.46,9,21.83v62.58h64.49c4.64-7.52,10-22.29,5.35-47.53l5-.92c4.44,24.19.3,39.5-4.41,48.45H317V220.76C317,200.39,306.06,198.93,306.06,198.93Z"/></svg>