<svg id="Layer_1" data-name="Layer 1" xmlns="http://www.w3.org/2000/svg" viewBox="0 0 360 360"><defs><style>.cls-1{fill:#08519c;}</style></defs><title>MyFamilyNurse_Icons</title><circle class="cls-1" cx="180" cy="95.56" r="55.31"/><path class="cls-1" d="M180,201.51c19.34-1.45,30.12-38.73,33.54-53A52.27,52.27,0,0,1,180,158.07a52.27,52.27,0,0,1-33.54-9.54C149.88,162.78,160.65,200.07,180,201.51Z"/><rect class="cls-1" x="176.53" y="260.74" width="6.93" height="31.01"/><path class="cls-1" d="M180,288.4a15.68,15.68,0,1,0,15.68,15.68A15.68,15.68,0,0,0,180,288.4ZM180,313a8.94,8.94,0,1,1,8.94-8.94A8.94,8.94,0,0,1,180,313Z"/><path class="cls-1" d="M139.3,148.43,89.07,172.85s-11.37,1.52-11.37,22.73v65.16h36.18c-4.9-9.31-9.21-25.25-4.59-50.45l5.19,1c-4.82,26.29.74,41.67,5.57,49.5h56.47V207.8C170.1,206.91,151.08,199.8,139.3,148.43Z"/><path class="cls-1" d="M282.29,195.58c0-21.22-11.37-22.73-11.37-22.73L220.7,148.43c-11.78,51.37-30.8,58.48-37.23,59.37v52.94h56.47c4.83-7.83,10.39-23.21,5.57-49.5l5.19-1c4.62,25.19.31,41.13-4.59,50.45h36.18Z"/></svg>