<svg id="Layer_1" data-name="Layer 1" xmlns="http://www.w3.org/2000/svg" xmlns:xlink="http://www.w3.org/1999/xlink" viewBox="0 0 466.48 436.48"><defs><style>.cls-1{fill:url(#linear-gradient);}.cls-2{fill:url(#linear-gradient-2);}.cls-3{fill:url(#linear-gradient-3);}.cls-4{fill:none;}.cls-5{fill:url(#linear-gradient-4);}.cls-6{fill:url(#linear-gradient-5);}.cls-7{fill:url(#linear-gradient-6);}.cls-8{fill:url(#linear-gradient-7);}.cls-9{fill:url(#linear-gradient-8);}</style><linearGradient id="linear-gradient" x1="175.54" y1="6.84" x2="417.06" y2="254.47" gradientUnits="userSpaceOnUse"><stop offset="0.16" stop-color="#2e3192"/><stop offset="1" stop-color="#1b1b30"/></linearGradient><linearGradient id="linear-gradient-2" x1="86.94" y1="59" x2="361.99" y2="341.01" xlink:href="#linear-gradient"/><linearGradient id="linear-gradient-3" x1="123.28" y1="23.55" x2="398.33" y2="305.56" xlink:href="#linear-gradient"/><linearGradient id="linear-gradient-4" x1="8.31" y1="334.56" x2="331.31" y2="465.56" gradientUnits="userSpaceOnUse"><stop offset="0" stop-color="#2e3192"/><stop offset="0.28" stop-color="#27296d"/><stop offset="0.58" stop-color="#20214c"/><stop offset="0.83" stop-color="#1c1d37"/><stop offset="1" stop-color="#1b1b30"/></linearGradient><linearGradient id="linear-gradient-5" x1="33.86" y1="271.58" x2="356.86" y2="402.58" xlink:href="#linear-gradient-4"/><linearGradient id="linear-gradient-6" x1="22.53" y1="299.51" x2="345.53" y2="430.51" xlink:href="#linear-gradient-4"/><linearGradient id="linear-gradient-7" x1="49.39" y1="233.28" x2="372.39" y2="364.28" xlink:href="#linear-gradient-4"/><linearGradient id="linear-gradient-8" x1="40.89" y1="254.24" x2="363.89" y2="385.24" xlink:href="#linear-gradient-4"/></defs><title>MyFamilyNurse_FullLogo_040217</title><path class="cls-1" d="M281.91,95.14a14.48,14.48,0,0,0-14.48,14.48,16.49,16.49,0,0,0,1.15,5.67l13.32,27.62,13.32-27.62a16.74,16.74,0,0,0,1.15-5.67A14.48,14.48,0,0,0,281.91,95.14Zm0,23.1a8.72,8.72,0,1,1,8.72-8.72A8.72,8.72,0,0,1,281.91,118.24Z"/><polygon class="cls-2" points="324.98 220.09 242.65 301.42 242.65 333.48 316.76 333.48 316.76 294.2 356.04 294.2 356.04 220.09 324.98 220.09"/><path class="cls-3" d="M343.85,85.84a73.75,73.75,0,0,0-52-21.54c-1.2,0-2.42,0-3.62.09-18.44.9-34.41,6.67-46.17,16.69a56.67,56.67,0,0,0-9.63,10.52,56.67,56.67,0,0,0-9.63-10.52c-11.76-10-27.73-15.79-46.17-16.69-1.2-.06-2.42-.09-3.62-.09a73.75,73.75,0,0,0-52,21.53,69.88,69.88,0,0,0-20.57,49.94,70.94,70.94,0,0,0,16.61,45.34l86.22,85.72h0l30.52,27.35,82.87-81.87v0l31-31.17a70.95,70.95,0,0,0,16.61-45.34A69.88,69.88,0,0,0,343.85,85.84ZM203.37,252.23h0Zm57.46-32.14H253.1V204.36h7.74Zm79.71-58.68a54.19,54.19,0,0,1-5.81,8.51l-18,18V172.86h6.71l-21.57-22.45H286.26l20,22.45H276.59L257,150.41l-21.25,22.45h6v47.24h-38.4v22.48l-73.16-72.66a53.75,53.75,0,0,1-12.46-34.21A52.79,52.79,0,0,1,133.31,98a56.41,56.41,0,0,1,39.74-16.46h0c.92,0,1.85.07,2.78.07,32.6,0,56.62,36.2,56.64,36.22h0s24.63-36.22,56.64-36.22c.93,0,1.86-.07,2.78-.07A56.42,56.42,0,0,1,331.65,98,52.78,52.78,0,0,1,347.2,135.7,54,54,0,0,1,340.55,161.41Z"/><polygon class="cls-4" points="203.37 252.24 203.37 252.23 203.37 252.24 203.37 252.24"/><path class="cls-4" d="M291.9,81.53c-.92,0-1.85.07-2.78.07-33.37-.07-56.64,36.22-56.64,36.22h0s-23.7-36.22-56.64-36.22c-.93,0-1.86-.07-2.78-.07h0A56.41,56.41,0,0,0,133.31,98a52.79,52.79,0,0,0-15.56,37.71,53.75,53.75,0,0,0,12.46,34.21l73.16,72.66V220.09h38.4V172.86h-6L257,150.41l19.55,22.45h29.63l-20-22.45h15.65l21.57,22.45h-6.71V188l18-18A53.74,53.74,0,0,0,347.2,135.7,52.78,52.78,0,0,0,331.65,98,56.42,56.42,0,0,0,291.9,81.53Z"/><path class="cls-5" d="M126.41,378.59l6.38-19.18-9.26,1.73-3.1,8.54a21.62,21.62,0,0,1-3.23,6c-1.49,1.87-2.38,2.15-2.78,2.15-.17,0-.51,0-.51-1.25,0-1.71.7-4.35,2.09-7.83l3.91-9.31L110,361.13l-2.64,7a28.61,28.61,0,0,0-1.16,3.87l-1,1.11a39.3,39.3,0,0,1-4,3.91,3.31,3.31,0,0,1-1.18.66,1.64,1.64,0,0,1,0-.37c0-.45.19-1.73,1.44-5.3a23,23,0,0,0,1.56-7.34,5.47,5.47,0,0,0-1.12-3.5c-1.59-2-4.34-2-7.15,0a40.8,40.8,0,0,0-4.28,3.73c0-.1,0-.19,0-.27a5.58,5.58,0,0,0-1-3.47,3.64,3.64,0,0,0-3-1.49c-2.17,0-4.9,1.67-8.28,5.07q.6-1.82,1.34-3.7l.71-1.78-8.55,1.66-.23.48a53.31,53.31,0,0,0-3.22,8.22,31.37,31.37,0,0,0-1,8.38c0,1.33.07,3,.21,5l.09,1.23,7.64-1.82v-.81c0-1.38.08-2.65.2-3.79s.28-2.4.55-3.84a5.22,5.22,0,0,1,1.28-2.69c.58-.67,1.15-1.27,1.68-1.81s1-1,1.43-1.35.78-.66,1.12-.91l.24-.17c0,.36-.14,1-.31,2-.25,1.44-.47,2.55-.65,3.3l-2.83,12,8.67-1.57L88.22,376l.85-3.64a4.75,4.75,0,0,1,1.1-1.77c.42-.51.85-1,1.29-1.41s.75-.79,1.11-1.11.67-.58.93-.78a5.91,5.91,0,0,1,.64-.39,39.62,39.62,0,0,1-1.28,4.47,24.64,24.64,0,0,0-1.43,7.29,5.69,5.69,0,0,0,1.23,3.79A4.31,4.31,0,0,0,96.11,384a8.86,8.86,0,0,0,5-1.73,40.9,40.9,0,0,0,4.67-3.9,7.14,7.14,0,0,0,1.29,3.29,4.79,4.79,0,0,0,4,2c2,0,4.07-1,6.36-2.89l-.34,1.2c-6.29,2.87-9.36,6.09-9.36,9.83A4.63,4.63,0,0,0,109,395.2a4.52,4.52,0,0,0,3.35,1.3,10,10,0,0,0,6.88-3.07c2-1.93,3.83-5,5.44-9.5a20.58,20.58,0,0,0,9.29-7.8,20.17,20.17,0,0,0,2.61-6.35l-3.19,3.36A26.5,26.5,0,0,1,126.41,378.59Zm-14.25,13.9c-.28,0-.41,0-.41-.66a4.08,4.08,0,0,1,1.4-2.69,11.58,11.58,0,0,1,2.37-1.82C113.93,392.07,112.58,392.48,112.16,392.48Z"/><path class="cls-6" d="M239.75,350.86a4.57,4.57,0,0,1-2.72,1,6.74,6.74,0,0,1-3.23-1.25,18.47,18.47,0,0,1-2.29,5,5.57,5.57,0,0,0,3.74,1.32Q239.75,357,239.75,350.86Z"/><path class="cls-7" d="M274,380.65l6.61-19.89-6.94,1.3-2.9,8a22.54,22.54,0,0,1-3.4,6.26q-2,2.54-3.6,2.54t-1.55-2.29q0-2.77,2.17-8.24l3.17-7.55-7.38,1.29-2.44,6.46a25.38,25.38,0,0,0-1.51,5.91,30.93,30.93,0,0,1-4.12,3.53,5.49,5.49,0,0,1-2.93,1,2.46,2.46,0,0,1-2.16-1.3,6.56,6.56,0,0,1-.81-3.51q0-1,.2-3.64a45.35,45.35,0,0,0,7.48-10.38,22.51,22.51,0,0,0,2.39-10,7.43,7.43,0,0,0-.47-2.91q-.47-1.08-1.21-1.08a1.64,1.64,0,0,0-.46.1l-6.46,2.39a81.64,81.64,0,0,0-5.62,13.79,46.4,46.4,0,0,0-2.29,12,21.42,21.42,0,0,1-2.68,2.61,3.4,3.4,0,0,1-2,.73,1.1,1.1,0,0,1-.93-.52,2.3,2.3,0,0,1-.37-1.36,27.06,27.06,0,0,1,1.58-7l2.54-8h-.31l-6.46,1.35a59.3,59.3,0,0,0-3.37,11.67,45.83,45.83,0,0,1-4.42,4,3.58,3.58,0,0,1-1.84.88q-1,0-1-1.42a22.56,22.56,0,0,1,1.5-5.65,22.24,22.24,0,0,0,1.5-7,4.43,4.43,0,0,0-.89-2.85,2.8,2.8,0,0,0-2.29-1.12,6.15,6.15,0,0,0-3.45,1.31,57.17,57.17,0,0,0-6.17,5.61q.25-2.19.25-3a4.55,4.55,0,0,0-.83-2.84,2.59,2.59,0,0,0-2.15-1.08q-3.64,0-10.48,8a57.37,57.37,0,0,1,2.57-8l-6.16,1.2a52,52,0,0,0-3.15,8.05A25.36,25.36,0,0,0,190,374c-1.35,1.22-2.93,2.47-3.57,3a3.47,3.47,0,0,1-2.19,1.06q-1.55,0-1.55-2.19a32.21,32.21,0,0,1,1.73-7.71l2.24-7.45h-1.43l-5.2,2.87a4.5,4.5,0,0,0-4.45-2.93,11,11,0,0,0-5.8,2.14,17.25,17.25,0,0,0-5.38,5.6,14.12,14.12,0,0,0-2,5.38c-2.64,3.06-5.65,5.18-7.85,5.18a4,4,0,0,1-3.73-2.67L153,365.7a37.64,37.64,0,0,0,7.11-8.13,13.7,13.7,0,0,0,1.88-6.86,7.65,7.65,0,0,0-.61-3.32q-.61-1.26-1.58-1.26-.13,0-1.91.45t-3.35.94a4.11,4.11,0,0,0-2,1,33.91,33.91,0,0,0-2,4.25,59.78,59.78,0,0,0-2.42,6.75q-.87,3.05-2.25,9.88s-1.11,1.09-2.7,2.8-4,6.58-4,6.58a14.35,14.35,0,0,0,2.46-2.07l1.7-1.88a20.47,20.47,0,0,0,1,2.44q-2,11.12-2.82,18.09,3.72-.74,6.37-1.09.82-6.49,1.89-12.08a7.16,7.16,0,0,0,2.64.73,9,9,0,0,0,4.63-1.62,31.1,31.1,0,0,0,5.3-4.59,8,8,0,0,0,1.49,4.1,4.62,4.62,0,0,0,3.8,2.1,7,7,0,0,0,4.44-1.73,26.28,26.28,0,0,0,4.69-5.37q-.23,7.1,3.79,7.1a6.1,6.1,0,0,0,3.36-1.17,62.62,62.62,0,0,0,5.85-4.7c0,.3,0,.59,0,.9q0,2,.2,4.88l5.65-1.35q0-2.14.2-3.87t.56-3.92a6.29,6.29,0,0,1,1.53-3.21q.89-1,1.73-1.86t1.48-1.4q.64-.56,1.2-1a5.18,5.18,0,0,1,.87-.53,1.21,1.21,0,0,1,.51-.18q.59,0,.59.87a25.66,25.66,0,0,1-.38,2.65q-.38,2.21-.66,3.36L200.75,383l6.44-1.17,1.54-6,.85-3.64a5.82,5.82,0,0,1,1.32-2.21q.66-.79,1.32-1.45t1.17-1.17a13.3,13.3,0,0,1,1-.87,6.21,6.21,0,0,1,.87-.51,1.41,1.41,0,0,1,.61-.18.73.73,0,0,1,.84.81,26.66,26.66,0,0,1-1.37,5.14,23.54,23.54,0,0,0-1.37,7,4.66,4.66,0,0,0,1,3.12,3.3,3.3,0,0,0,2.66,1.16,7.81,7.81,0,0,0,4.4-1.55,54.06,54.06,0,0,0,5.45-4.44c0,.06,0,.13,0,.19a7.34,7.34,0,0,0,1.12,4.19,3.26,3.26,0,0,0,2.75,1.67c1.91,0,4.76-2,8.55-5.9a7.85,7.85,0,0,0,1.51,3.74A5.32,5.32,0,0,0,245.8,383a10,10,0,0,0,5-1.51,34.45,34.45,0,0,0,5.33-4,6.57,6.57,0,0,0,1.17,3.62,3.78,3.78,0,0,0,3.17,1.6q3.64,0,8.45-5.37l-1.55,5.47q-9.18,4.07-9.18,9.08a3.6,3.6,0,0,0,1,2.65,3.5,3.5,0,0,0,2.61,1,8.94,8.94,0,0,0,6.16-2.79q3-2.79,5.32-9.5a31.06,31.06,0,0,0,7.89-5,8.87,8.87,0,0,0,2.43-4.38A28.66,28.66,0,0,1,274,380.65Zm-23.37-27q1.79-4.69,2.73-4.69.43,0,.71.57a3.49,3.49,0,0,1,.28,1.52,19.29,19.29,0,0,1-2,7.67,31,31,0,0,1-5.24,8A87.86,87.86,0,0,1,250.63,353.69Zm-94.17-2q1.15-2.93,2.27-2.93a1.14,1.14,0,0,1,1,.69,3.51,3.51,0,0,1,.39,1.76,11.34,11.34,0,0,1-1.69,5.51,21.52,21.52,0,0,1-4.67,5.58A72.92,72.92,0,0,1,156.46,351.65Zm19.48,22.17q-2.25,4.34-4.8,4.34a2.09,2.09,0,0,1-1.72-.85,3.48,3.48,0,0,1-.67-2.23,17.29,17.29,0,0,1,2.28-8q2.28-4.32,4.82-4.33a2.07,2.07,0,0,1,1.7.8,3.5,3.5,0,0,1,.64,2.23A17.55,17.55,0,0,1,175.93,373.82Zm85.61,19.7q-1.45,0-1.45-1.7a5,5,0,0,1,1.69-3.42,15.44,15.44,0,0,1,4.82-3.14Q264.36,393.53,261.54,393.53Z"/><path class="cls-8" d="M399.9,373.1a27.21,27.21,0,0,1-4.4,3.84,5.13,5.13,0,0,1-2.67.76c-1.35,0-3.17-.35-4.06-3.21,7.39-2.32,11-5.35,11-9.26a5,5,0,0,0-1.79-4,6.65,6.65,0,0,0-4.47-1.47c-3.34,0-6.4,1.59-9.09,4.73a15.7,15.7,0,0,0-4,10.44,9.1,9.1,0,0,0,2.41,6.55,8.42,8.42,0,0,0,6.34,2.53,12,12,0,0,0,6.2-1.66,32.58,32.58,0,0,0,6-4.85l.31-.31v-5.9Zm-10.17-7.16c.56-.93,1.41-2,2.31-2,.29,0,.74,0,.74,1.4,0,2.43-1.43,4.18-4.37,5.31A10.68,10.68,0,0,1,389.73,365.94Z"/><path class="cls-9" d="M376.13,365a5.76,5.76,0,0,1,.33-1.84,2.76,2.76,0,0,0,.28-1.19,1.25,1.25,0,0,0-1.3-1.25,17.79,17.79,0,0,0-2.31.31c-1.22.2-2.44.46-3.63.77l-.53.14-.19.52a34.65,34.65,0,0,1-6.68,10.6l0,0c-1.73,1.67-2.69,2.55-3.22,3a4.22,4.22,0,0,1-1.61.77.57.57,0,0,1-.51-.24,1.72,1.72,0,0,1-.27-1.06,8.59,8.59,0,0,1,.39-2.34c.28-1,.91-2.83,1.89-5.54l2.9-8-4.47.2-.28.53c-1.45,2.76-3.06,4.57-4.81,5.4a10.84,10.84,0,0,0,.55-3,2.81,2.81,0,0,0-3-3.08,5.17,5.17,0,0,0-4.57,2.73,9.27,9.27,0,0,0-1.48,4.72,3.81,3.81,0,0,0,1.72,3.22,30.09,30.09,0,0,1-2.95,3l-1.78,1.67c-2.13,2-3,2.14-3.21,2.14s-.59,0-.59-1.35a17.14,17.14,0,0,1,.85-4.06c.6-2.07,1.7-5.68,3.28-10.74l.53-1.68-9.26,1.87-3.52,11.44A9.7,9.7,0,0,1,326.4,376c-1.49,1.63-2.25,1.81-2.51,1.81s-.79,0-.79-1.4c0-2.18,1.4-7.33,4.14-15.32l.59-1.72-9.15,1.82-.2.55a69.59,69.59,0,0,0-3,10.11l-1.06,1.25c-3.57,4.21-4.9,4.54-5.22,4.54H309a1.1,1.1,0,0,1-.07-.48c0-.29.14-1.31,1.43-4.61,1.52-3.89,2.26-6.64,2.26-8.42a4.6,4.6,0,0,0-1.12-3.14,3.83,3.83,0,0,0-2.94-1.33,8.61,8.61,0,0,0-5,2,33.36,33.36,0,0,0-3.9,3.51q.59-1.86,1.44-4.15l.65-1.74L293.25,361l-.22.49a51.62,51.62,0,0,0-3.13,8.42,31.86,31.86,0,0,0-1,8c0,1.16.09,2.86.28,5.2l.1,1.21,7.61-1.79v-.83c0-1.5,0-2.7.07-3.56a37.44,37.44,0,0,1,.5-3.86,4.16,4.16,0,0,1,.93-1.92l1.43-1.65c.51-.59,1-1.12,1.45-1.59s1-1,1.36-1.36a11.8,11.8,0,0,1,1-.81,26.17,26.17,0,0,1-1,2.92c-1.56,3.89-2.31,6.74-2.31,8.71a5.73,5.73,0,0,0,1.3,3.89,4.49,4.49,0,0,0,3.53,1.55c2.87,0,6.1-1.82,9.82-5.52a7.4,7.4,0,0,0,1.29,3.54,4.73,4.73,0,0,0,3.95,2,8.9,8.9,0,0,0,4.9-1.64,24.41,24.41,0,0,0,3.62-3,7.14,7.14,0,0,0,1,2.56c1.67,2.48,4.93,2.83,8.61.37a45.3,45.3,0,0,0,5.39-4.46h0l.31-.3h0l0,0h0a35.55,35.55,0,0,0,5.53-6.38q.52-.1,1-.24c-1.65,3-2.46,5.52-2.46,7.57a6,6,0,0,0,1.3,3.9,4.27,4.27,0,0,0,3.43,1.69c2.28,0,5.51-2,9.23-5.34l.06,0h0a4.24,4.24,0,0,0-1.14,2.34,3.45,3.45,0,0,0,1.9,2.84A6.75,6.75,0,0,0,366.7,385c2.93,0,5.77-1.31,8.45-3.91s4-5.38,4-8.25a8.85,8.85,0,0,0-1.7-4.83A6.28,6.28,0,0,1,376.13,365Zm-4.79,14.1a3,3,0,0,1-2.15,1.11c-.23,0-.78,0-1.19-1.35-.24-.77-.86-2.82-2.45-2.82a1.89,1.89,0,0,0-1,.32,69.06,69.06,0,0,0,4.69-6.15,27.92,27.92,0,0,0,1.62,2.8c1.29,2,1.56,3.12,1.56,3.71A3.41,3.41,0,0,1,371.34,379.1Z"/></svg>