<svg id="Layer_1" data-name="Layer 1" xmlns="http://www.w3.org/2000/svg" xmlns:xlink="http://www.w3.org/1999/xlink" viewBox="0 0 569.56 116"><defs><style>.cls-1{fill:url(#linear-gradient);}.cls-2{fill:url(#linear-gradient-2);}.cls-3{fill:url(#linear-gradient-3);}.cls-4{fill:url(#linear-gradient-4);}.cls-5{fill:url(#linear-gradient-5);}</style><linearGradient id="linear-gradient" x1="-41.72" y1="4.97" x2="424.67" y2="194.12" gradientUnits="userSpaceOnUse"><stop offset="0" stop-color="#2e3192"/><stop offset="0.28" stop-color="#27296d"/><stop offset="0.58" stop-color="#20214c"/><stop offset="0.83" stop-color="#1c1d37"/><stop offset="1" stop-color="#1b1b30"/></linearGradient><linearGradient id="linear-gradient-2" x1="-4.83" y1="-85.98" x2="461.56" y2="103.17" xlink:href="#linear-gradient"/><linearGradient id="linear-gradient-3" x1="-21.2" y1="-45.64" x2="445.2" y2="143.51" xlink:href="#linear-gradient"/><linearGradient id="linear-gradient-4" x1="17.59" y1="-141.28" x2="483.98" y2="47.88" xlink:href="#linear-gradient"/><linearGradient id="linear-gradient-5" x1="5.32" y1="-111.01" x2="471.71" y2="78.15" xlink:href="#linear-gradient"/></defs><title>MyFamilyNurse_Logo</title><path class="cls-1" d="M128.79,68.53,138,40.84l-13.38,2.5-4.48,12.34a31.22,31.22,0,0,1-4.67,8.62c-2.15,2.7-3.44,3.1-4,3.1-.24,0-.73,0-.73-1.81,0-2.46,1-6.28,3-11.31l5.64-13.45-14.23,2.49-3.82,10.13A41.31,41.31,0,0,0,99.66,59l-1.49,1.6a56.75,56.75,0,0,1-5.76,5.64,4.79,4.79,0,0,1-1.71,1,2.37,2.37,0,0,1,0-.53c0-.64.27-2.5,2.08-7.65A33.22,33.22,0,0,0,95,48.45a7.89,7.89,0,0,0-1.61-5.05c-2.29-2.88-6.26-2.87-10.33,0a58.91,58.91,0,0,0-6.18,5.39c0-.14,0-.27,0-.39a8.05,8.05,0,0,0-1.5-5,5.25,5.25,0,0,0-4.3-2.15c-3.13,0-7.07,2.41-12,7.33Q60,45.91,61,43.2l1-2.56L49.7,43l-.33.69a77,77,0,0,0-4.64,11.87A45.29,45.29,0,0,0,43.28,67.7c0,1.92.1,4.32.3,7.16l.12,1.77,11-2.63V72.82c0-2,.12-3.83.29-5.47s.41-3.46.79-5.54a7.53,7.53,0,0,1,1.85-3.88c.84-1,1.66-1.84,2.43-2.61s1.42-1.39,2.06-2,1.12-.95,1.62-1.31l.35-.25c-.07.52-.2,1.38-.45,2.82-.36,2.08-.67,3.68-.94,4.76L58.66,76.75l12.52-2.27,2.47-9.64,1.22-5.26A6.86,6.86,0,0,1,76.47,57c.61-.73,1.23-1.4,1.86-2s1.09-1.13,1.6-1.6,1-.84,1.34-1.12a8.54,8.54,0,0,1,.92-.56,57.21,57.21,0,0,1-1.85,6.45,35.58,35.58,0,0,0-2.06,10.53,8.21,8.21,0,0,0,1.77,5.47,6.23,6.23,0,0,0,5,2.21,12.8,12.8,0,0,0,7.21-2.5A59.06,59.06,0,0,0,99,68.23,10.32,10.32,0,0,0,100.87,73a6.92,6.92,0,0,0,5.78,2.92c2.84,0,5.88-1.37,9.19-4.18l-.49,1.73c-9.09,4.15-13.51,8.8-13.51,14.2a6.68,6.68,0,0,0,1.85,4.88,6.53,6.53,0,0,0,4.84,1.88c3.47,0,6.81-1.49,9.93-4.43,3-2.79,5.53-7.28,7.85-13.72C133,73.13,136.83,69.51,139.72,65a29.12,29.12,0,0,0,3.77-9.17l-4.6,4.84A38.26,38.26,0,0,1,128.79,68.53ZM108.22,88.6c-.4,0-.59,0-.59-1a5.89,5.89,0,0,1,2-3.89,16.72,16.72,0,0,1,3.42-2.63C110.77,88,108.82,88.6,108.22,88.6Z"/><path class="cls-2" d="M292.46,28.5a6.6,6.6,0,0,1-3.93,1.43,9.73,9.73,0,0,1-4.67-1.8,26.67,26.67,0,0,1-3.31,7.27,8,8,0,0,0,5.4,1.91Q292.46,37.32,292.46,28.5Z"/><path class="cls-3" d="M341.91,71.52l9.55-28.72-10,1.87L337.26,56.2a32.55,32.55,0,0,1-4.9,9q-2.92,3.67-5.2,3.67t-2.24-3.31q0-4,3.14-11.9l4.57-10.9L322,44.67,318.44,54a36.64,36.64,0,0,0-2.18,8.54,44.67,44.67,0,0,1-5.95,5.09,7.93,7.93,0,0,1-4.22,1.43A3.55,3.55,0,0,1,303,67.18a9.47,9.47,0,0,1-1.18-5.07q0-1.43.29-5.25a65.48,65.48,0,0,0,10.8-15,32.5,32.5,0,0,0,3.45-14.51,10.73,10.73,0,0,0-.68-4.21q-.68-1.56-1.74-1.56a2.36,2.36,0,0,0-.66.15l-9.33,3.45a117.89,117.89,0,0,0-8.12,19.91,67,67,0,0,0-3.31,17.34,30.93,30.93,0,0,1-3.87,3.77,4.92,4.92,0,0,1-2.88,1,1.59,1.59,0,0,1-1.34-.75,3.33,3.33,0,0,1-.53-2q0-3,2.28-10.17l3.67-11.5h-.44L280,44.81a85.63,85.63,0,0,0-4.87,16.86,66.18,66.18,0,0,1-6.38,5.83,5.17,5.17,0,0,1-2.66,1.27q-1.5,0-1.5-2.05t2.16-8.15A32.12,32.12,0,0,0,269,48.45a6.4,6.4,0,0,0-1.29-4.11,4,4,0,0,0-3.31-1.62,8.89,8.89,0,0,0-5,1.89,82.55,82.55,0,0,0-8.91,8.1q.37-3.16.37-4.34a6.57,6.57,0,0,0-1.19-4.1,3.73,3.73,0,0,0-3.1-1.56q-5.25,0-15.13,11.5a82.83,82.83,0,0,1,3.71-11.57l-8.89,1.73A75.11,75.11,0,0,0,221.67,56a36.62,36.62,0,0,0-1.09,5.95c-1.95,1.76-4.23,3.56-5.15,4.37a5,5,0,0,1-3.16,1.52q-2.24,0-2.24-3.16t2.5-11.13l3.24-10.76h-2.06l-7.51,4.15a6.5,6.5,0,0,0-6.43-4.22q-3.64,0-8.38,3.09a24.91,24.91,0,0,0-7.77,8.08,20.38,20.38,0,0,0-2.84,7.76c-3.82,4.42-8.16,7.48-11.34,7.48q-3.59,0-5.39-3.85l3.09-15.35q7.55-7,10.26-11.74a19.78,19.78,0,0,0,2.71-9.91,11,11,0,0,0-.88-4.79q-.88-1.82-2.28-1.82-.18,0-2.75.64t-4.83,1.36a5.94,5.94,0,0,0-2.85,1.51,49,49,0,0,0-2.83,6.13,86.33,86.33,0,0,0-3.49,9.75Q159,45.47,157,55.33s-1.6,1.57-3.9,4-5.81,9.51-5.81,9.51a20.72,20.72,0,0,0,3.56-3l2.46-2.72a29.56,29.56,0,0,0,1.43,3.53q-2.9,16.05-4.08,26.12,5.37-1.07,9.19-1.58,1.18-9.37,2.73-17.44a10.35,10.35,0,0,0,3.82,1.06A13,13,0,0,0,173,72.53a44.9,44.9,0,0,0,7.66-6.62,11.57,11.57,0,0,0,2.16,5.92,6.67,6.67,0,0,0,5.49,3,10.14,10.14,0,0,0,6.41-2.5,38,38,0,0,0,6.78-7.75q-.33,10.25,5.47,10.25a8.8,8.8,0,0,0,4.85-1.69,90.41,90.41,0,0,0,8.45-6.78c0,.44,0,.86,0,1.31q0,2.83.29,7.05l8.15-1.95q0-3.09.29-5.58t.81-5.66a9.08,9.08,0,0,1,2.2-4.63q1.29-1.47,2.5-2.68t2.13-2q.92-.81,1.73-1.4a7.48,7.48,0,0,1,1.25-.77,1.75,1.75,0,0,1,.73-.26q.85,0,.85,1.25a37.06,37.06,0,0,1-.55,3.82q-.55,3.2-1,4.85l-3.56,15.13,9.31-1.68,2.22-8.67,1.22-5.25a8.4,8.4,0,0,1,1.91-3.2q1-1.14,1.91-2.09t1.69-1.69A19.2,19.2,0,0,1,255.91,51a9,9,0,0,1,1.25-.73A2,2,0,0,1,258,50a1.06,1.06,0,0,1,1.21,1.18q0,1.32-2,7.42a34,34,0,0,0-2,10.07,6.73,6.73,0,0,0,1.41,4.5,4.77,4.77,0,0,0,3.84,1.67,11.28,11.28,0,0,0,6.36-2.24,78.06,78.06,0,0,0,7.87-6.41c0,.09,0,.19,0,.28a10.61,10.61,0,0,0,1.62,6,4.7,4.7,0,0,0,4,2.41c2.75,0,6.88-2.86,12.35-8.52a11.33,11.33,0,0,0,2.18,5.39,7.68,7.68,0,0,0,6.34,3,14.36,14.36,0,0,0,7.18-2.19,49.74,49.74,0,0,0,7.7-5.84,9.48,9.48,0,0,0,1.69,5.23,5.46,5.46,0,0,0,4.57,2.31q5.25,0,12.2-7.75l-2.24,7.9Q319,80.41,319,87.64a5.2,5.2,0,0,0,1.41,3.82,5.06,5.06,0,0,0,3.77,1.43q4.63,0,8.89-4t7.68-13.72A44.85,44.85,0,0,0,352.18,68c2.67-2.26,3.52-6.33,3.52-6.33A41.38,41.38,0,0,1,341.91,71.52ZM308.16,32.59q2.59-6.77,3.95-6.77.62,0,1,.83a5,5,0,0,1,.4,2.19q0,4.64-2.9,11.07a44.8,44.8,0,0,1-7.57,11.62A126.86,126.86,0,0,1,308.16,32.59Zm-136-2.95q1.67-4.23,3.28-4.23a1.64,1.64,0,0,1,1.41,1,5.06,5.06,0,0,1,.57,2.54,16.38,16.38,0,0,1-2.44,8A31.07,31.07,0,0,1,168.26,45Q170.52,33.87,172.18,29.64Zm28.12,32q-3.25,6.26-6.92,6.26a3,3,0,0,1-2.48-1.23,5,5,0,0,1-1-3.22A25,25,0,0,1,193.22,52q3.29-6.24,7-6.25a3,3,0,0,1,2.46,1.16,5.06,5.06,0,0,1,.92,3.22A25.35,25.35,0,0,1,200.31,61.66ZM323.92,90.11q-2.09,0-2.09-2.46a7.26,7.26,0,0,1,2.44-4.94,22.3,22.3,0,0,1,7-4.54Q328,90.1,323.92,90.11Z"/><path class="cls-4" d="M523.7,60.61a39.28,39.28,0,0,1-6.35,5.55,7.41,7.41,0,0,1-3.86,1.09c-1.95,0-4.58-.51-5.86-4.63,10.67-3.35,15.86-7.73,15.86-13.37a7.27,7.27,0,0,0-2.58-5.77,9.61,9.61,0,0,0-6.45-2.13c-4.82,0-9.24,2.3-13.12,6.83a22.67,22.67,0,0,0-5.76,15.07,13.14,13.14,0,0,0,3.49,9.45,12.16,12.16,0,0,0,9.15,3.66,17.39,17.39,0,0,0,9-2.39,47,47,0,0,0,8.67-7l.45-.44V58ZM509,50.27c.8-1.35,2-3,3.33-3,.42,0,1.06,0,1.06,2,0,3.51-2.07,6-6.31,7.66A15.42,15.42,0,0,1,509,50.27Z"/><path class="cls-5" d="M489.39,48.91a8.32,8.32,0,0,1,.48-2.65,4,4,0,0,0,.41-1.71,1.8,1.8,0,0,0-1.87-1.8,25.68,25.68,0,0,0-3.33.44c-1.76.29-3.52.66-5.24,1.11l-.77.2-.27.75c-1.74,4.82-5,10-9.64,15.31l0,0c-2.5,2.42-3.89,3.68-4.66,4.34A6.1,6.1,0,0,1,462.12,66a.82.82,0,0,1-.74-.34,2.48,2.48,0,0,1-.4-1.53,12.41,12.41,0,0,1,.57-3.38c.4-1.39,1.32-4.09,2.72-8l4.19-11.52-6.46.28-.4.77c-2.09,4-4.42,6.6-7,7.8a15.65,15.65,0,0,0,.79-4.39c0-2.78-1.63-4.45-4.37-4.45a7.47,7.47,0,0,0-6.6,3.95A13.38,13.38,0,0,0,442.32,52a5.5,5.5,0,0,0,2.48,4.64,43.45,43.45,0,0,1-4.26,4.37L438,63.47c-3.08,2.87-4.33,3.09-4.64,3.09s-.85,0-.85-1.95a24.75,24.75,0,0,1,1.23-5.87c.86-3,2.45-8.2,4.74-15.5l.76-2.43-13.38,2.7L420.77,60a14,14,0,0,1-3.2,4.84c-2.15,2.36-3.25,2.61-3.63,2.61s-1.14,0-1.14-2c0-3.14,2-10.59,6-22.12l.85-2.48L406.44,43.5l-.29.79a100.48,100.48,0,0,0-4.37,14.6l-1.53,1.81c-5.15,6.08-7.08,6.56-7.54,6.56h-.19a1.6,1.6,0,0,1-.1-.69c0-.41.2-1.89,2.06-6.66,2.19-5.62,3.26-9.59,3.26-12.15a6.64,6.64,0,0,0-1.62-4.54,5.53,5.53,0,0,0-4.25-1.92c-2.18,0-4.53.94-7.18,2.88A48.17,48.17,0,0,0,379,49.23q.86-2.69,2.08-6l.94-2.51-12.35,2.38-.32.7A74.53,74.53,0,0,0,364.87,56a46,46,0,0,0-1.43,11.58c0,1.67.13,4.13.41,7.51L364,76.8l11-2.58V73c0-2.16,0-3.9.11-5.15a54.07,54.07,0,0,1,.72-5.57,6,6,0,0,1,1.35-2.77l2.06-2.39c.74-.86,1.43-1.62,2.09-2.3s1.4-1.44,2-2a17,17,0,0,1,1.43-1.17,37.78,37.78,0,0,1-1.48,4.22c-2.25,5.62-3.34,9.73-3.34,12.57a8.27,8.27,0,0,0,1.88,5.62,6.48,6.48,0,0,0,5.1,2.24c4.14,0,8.8-2.63,14.18-8a10.68,10.68,0,0,0,1.86,5.11,6.82,6.82,0,0,0,5.7,2.93,12.86,12.86,0,0,0,7.08-2.36,35.25,35.25,0,0,0,5.22-4.39,10.31,10.31,0,0,0,1.49,3.7c2.42,3.58,7.12,4.08,12.43.54a65.41,65.41,0,0,0,7.78-6.44h0l.44-.44h0l0,0h0c3.23-3.21,6.33-6.36,8-9.22q.75-.15,1.48-.35c-2.38,4.37-3.55,8-3.55,10.93A8.66,8.66,0,0,0,450.92,74a6.17,6.17,0,0,0,5,2.45c3.3,0,8-2.83,13.33-7.71l.09.05h0c-1.16,1.51-1.65,2.53-1.65,3.38,0,1.55.92,2.92,2.75,4.1a9.75,9.75,0,0,0,5.37,1.56c4.23,0,8.34-1.9,12.2-5.64s5.84-7.77,5.84-11.92a12.78,12.78,0,0,0-2.45-7C489.65,50.74,489.39,49.45,489.39,48.91Zm-6.92,20.37a4.31,4.31,0,0,1-3.11,1.6c-.34,0-1.13,0-1.72-1.95-.34-1.12-1.24-4.08-3.54-4.08a2.73,2.73,0,0,0-1.45.47,99.71,99.71,0,0,0,6.77-8.87,40.31,40.31,0,0,0,2.34,4c1.86,2.88,2.26,4.5,2.25,5.35A4.93,4.93,0,0,1,482.47,69.27Z"/></svg>